# xmcd
#
# Track frame offsets: 
#        150
#        13132
#        26023
#        38201
#        51609
#        64622
#        77244
#        89701
#        102158
#        116353
#        128580
#        141559
#        154196
#        166853
#        180450
#        192857
#        205170
#        216835
#        229124
#        241304
#        255545
#        267998
#        279258
#        290896
#        303029
#        317001
#        331839
#
# Disc length: 4607 seconds
#
# Revision: 2
# Processed by: cddbd v1.5.2PL0 Copyright (c) Steve Scherf et al.
# Submitted via: ExactAudioCopy v1.0b3
#
DISCID=8611fd1b
DTITLE=Brown, Milton and His Musical Brownies - Daddy Of Western Swing [
DTITLE=Disc 3]
DYEAR=2003
DGENRE=Western Swing
TTITLE0=Going Up Busy Fork (inst)
TTITLE1=Beale Street Mama
TTITLE2=The Sheik Of Araby
TTITLE3=Mexicali Rose
TTITLE4=Somebody's Been Using That Thing
TTITLE5=Mama Don't Allow It
TTITLE6=I've Got The Blues For Mammy
TTITLE7=Texas Hambone Blues
TTITLE8=The Eyes Of Texas
TTITLE9=Easy Ridin' Papa
TTITLE10=Stay On The Right Side
TTITLE11=If You Can't Get Five Take Two
TTITLE12=Cielito Lindo (Beautiful Heaven)
TTITLE13=The Waltz You Saved For Me
TTITLE14=I Had Someone Before I Had You
TTITLE15=Am I Blue
TTITLE16=Our Baby Boy
TTITLE17=Under The Double Eagle
TTITLE18=Washington And Lee Swing
TTITLE19=The Wheel On The Wagon Is Broken
TTITLE20=Memphis Blues
TTITLE21=Somebody Stole My Gal
TTITLE22=When I'm Gone Don't You Grieve
TTITLE23=The Hesitation Blues
TTITLE24=The Sweetheart Of Sigma Chi
TTITLE25=An Old Watermill By A Waterfall
TTITLE26=Avalon
EXTD=
EXTT0=
EXTT1=
EXTT2=
EXTT3=
EXTT4=
EXTT5=
EXTT6=
EXTT7=
EXTT8=
EXTT9=
EXTT10=
EXTT11=
EXTT12=
EXTT13=
EXTT14=
EXTT15=
EXTT16=
EXTT17=
EXTT18=
EXTT19=
EXTT20=
EXTT21=
EXTT22=
EXTT23=
EXTT24=
EXTT25=
EXTT26=
PLAYORDER=
